<svg width="31" height="38" viewBox="0 0 31 38" fill="none" xmlns="http://www.w3.org/2000/svg">
<g filter="url(#filter0_d_135_1304)">
<path d="M4.39355 32.5952C4.39355 34.1235 5.63252 35.3625 7.16087 35.3625H18.1534C24.7108 35.3625 28.5807 31.8881 28.5807 26.4231C28.5807 24.8644 27.995 23.338 27.0094 22.1253C26.1846 21.1105 26.0011 18.3987 26.583 17.2276C26.9896 16.4095 27.2191 15.5113 27.2191 14.6606C27.2191 9.26802 23.5641 5.86597 17.0784 5.86597H7.16087C5.63252 5.86597 4.39355 7.10493 4.39355 8.63328V32.5952Z" fill="#F2F2F2"/>
<path d="M3.39355 32.5952C3.39355 34.6758 5.08024 36.3625 7.16087 36.3625H18.1534C21.6005 36.3625 24.4645 35.4487 26.4817 33.6972C28.5154 31.9314 29.5807 29.4063 29.5807 26.4231C29.5807 24.616 28.9037 22.8705 27.7854 21.4946C27.5688 21.2281 27.3372 20.5493 27.2655 19.6552C27.1948 18.7725 27.307 18.0179 27.4785 17.6727C27.9449 16.7342 28.2191 15.6846 28.2191 14.6606C28.2191 11.727 27.2167 9.23662 25.2432 7.49188C23.2851 5.76074 20.4876 4.86597 17.0784 4.86597H7.16087C5.08024 4.86597 3.39355 6.55265 3.39355 8.63328V32.5952Z" stroke="#333333" stroke-width="2"/>
</g>
<rect x="6.69922" y="8.6333" width="11.0692" height="11.0692" rx="2.30609" fill="#F2F2F2"/>
<rect x="6.69922" y="22.9312" width="11.0692" height="1.84487" rx="0.922437" fill="#F2F2F2"/>
<rect x="6.69922" y="26.1597" width="18.91" height="1.84487" rx="0.922437" fill="#F2F2F2"/>
<rect x="6.69922" y="29.3882" width="18.91" height="1.84487" rx="0.922437" fill="#F2F2F2"/>
<g opacity="0.5">
<rect x="3.4707" y="1.63745" width="1.92622" height="1.92625" rx="0.963108" fill="#DB543C"/>
<rect x="5.98145" y="1.63745" width="1.92622" height="1.92625" rx="0.963108" fill="#EBBD37"/>
<rect x="8.49316" y="1.63745" width="1.92622" height="1.92625" rx="0.963108" fill="#8CC7BB"/>
</g>
<rect x="12.2637" y="1.63745" width="5.0734" height="1.84487" rx="0.922437" fill="#484848"/>
<defs>
<filter id="filter0_d_135_1304" x="0.218458" y="0.391854" width="30.3626" height="36.9707" filterUnits="userSpaceOnUse" color-interpolation-filters="sRGB">
<feFlood flood-opacity="0" result="BackgroundImageFix"/>
<feColorMatrix in="SourceAlpha" type="matrix" values="0 0 0 0 0 0 0 0 0 0 0 0 0 0 0 0 0 0 127 0" result="hardAlpha"/>
<feOffset dx="-2.1751" dy="-3.47411"/>
<feComposite in2="hardAlpha" operator="out"/>
<feColorMatrix type="matrix" values="0 0 0 0 0 0 0 0 0 0 0 0 0 0 0 0 0 0 1 0"/>
<feBlend mode="normal" in2="BackgroundImageFix" result="effect1_dropShadow_135_1304"/>
<feBlend mode="normal" in="SourceGraphic" in2="effect1_dropShadow_135_1304" result="shape"/>
</filter>
</defs>
</svg>
